<?xml version="1.0" encoding="UTF-8" standalone="no"?>
<!DOCTYPE svg PUBLIC "-//W3C//DTD SVG 1.1//EN" "http://www.w3.org/Graphics/SVG/1.1/DTD/svg11.dtd">
<svg width="100%" height="100%" viewBox="0 0 65 65" version="1.1" xmlns="http://www.w3.org/2000/svg" xmlns:xlink="http://www.w3.org/1999/xlink" xml:space="preserve" xmlns:serif="http://www.serif.com/" style="fill-rule:evenodd;clip-rule:evenodd;stroke-linejoin:round;stroke-miterlimit:2;">
    <g transform="matrix(1,0,0,1,-640,-832)">
        <path d="M665.649,836.613C666.547,833.862 669.114,832 672.009,832C674.903,832 677.47,833.862 678.368,836.613L683.103,851.111C683.24,851.532 683.475,851.915 683.789,852.228C684.102,852.542 684.485,852.777 684.906,852.914L699.404,857.649C702.156,858.547 704.017,861.114 704.017,864.009C704.017,866.903 702.156,869.47 699.404,870.368L684.906,875.103C684.485,875.24 684.102,875.475 683.789,875.789C683.475,876.102 683.24,876.485 683.103,876.906L678.368,891.404C677.47,894.156 674.903,896.017 672.009,896.017C669.114,896.017 666.547,894.156 665.649,891.404L660.914,876.906C660.777,876.485 660.542,876.102 660.228,875.789C659.915,875.475 659.532,875.24 659.111,875.103L644.613,870.368C641.862,869.47 640,866.903 640,864.009C640,861.114 641.862,858.547 644.613,857.649L659.111,852.914C659.532,852.777 659.915,852.542 660.228,852.228C660.542,851.915 660.777,851.532 660.914,851.111L665.649,836.613Z"/>
    </g>
</svg>
